# Blender v2.90.1 OBJ File: ''
# www.blender.org
mtllib testconnection.mtl
o low
v 0.000278 -0.411612 0.500000
v 0.044472 -0.455806 0.500000
v 0.000278 -0.411612 -0.500000
v 0.044472 -0.455806 -0.500000
v -0.043916 -0.455806 -0.500000
v 0.000278 -0.500000 -0.500000
v -0.043916 -0.455806 0.500000
v 0.000278 -0.500000 0.500000
vt 0.000000 1.000000
vt 0.000000 0.937500
vt 1.000000 1.000000
vt 1.000000 0.937500
vt 0.000000 1.000000
vt 0.000000 0.937500
vt 1.000000 1.000000
vt 1.000000 0.937500
vt 0.000000 0.000000
vt 0.062500 1.000000
vt 0.062500 0.000000
vt 0.000000 1.000000
vt 0.000000 0.000000
vt 0.062500 1.000000
vt 0.062500 0.000000
vt 0.000000 1.000000
vt 0.000000 0.937500
vt 0.062500 1.000000
vt 0.062500 0.937500
vt 0.000000 1.000000
vt 0.000000 0.937500
vt 0.062500 1.000000
vt 0.062500 0.937500
vn 0.7071 0.7071 0.0000
vn -0.7071 -0.7071 -0.0000
vn -0.7071 0.7071 0.0000
vn 0.7071 -0.7071 -0.0000
vn 0.0000 -0.0000 1.0000
vn 0.0000 0.0000 -1.0000
usemtl m_1
s 1
f 1/1/1 2/2/1 3/3/1
f 2/2/1 4/4/1 3/3/1
f 5/5/2 6/6/2 7/7/2
f 6/6/2 8/8/2 7/7/2
f 5/5/3 7/9/3 3/10/3
f 7/9/3 1/11/3 3/10/3
f 8/12/4 6/13/4 2/14/4
f 6/13/4 4/15/4 2/14/4
f 7/16/5 8/17/5 1/18/5
f 8/17/5 2/19/5 1/18/5
f 3/20/6 4/21/6 5/22/6
f 4/21/6 6/23/6 5/22/6
o high
v 0.000720 0.531050 0.500000
v 0.044914 0.486856 0.500000
v 0.000720 0.531050 -0.500000
v 0.044914 0.486856 -0.500000
v -0.043474 0.486856 -0.500000
v 0.000720 0.442662 -0.500000
v -0.043474 0.486856 0.500000
v 0.000720 0.442662 0.500000
vt 0.000000 1.000000
vt 0.000000 0.937500
vt 1.000000 1.000000
vt 1.000000 0.937500
vt 0.000000 1.000000
vt 0.000000 0.937500
vt 1.000000 1.000000
vt 1.000000 0.937500
vt 0.000000 0.000000
vt 0.062500 1.000000
vt 0.062500 0.000000
vt 0.000000 1.000000
vt 0.000000 0.000000
vt 0.062500 1.000000
vt 0.062500 0.000000
vt 0.000000 1.000000
vt 0.000000 0.937500
vt 0.062500 1.000000
vt 0.062500 0.937500
vt 0.000000 1.000000
vt 0.000000 0.937500
vt 0.062500 1.000000
vt 0.062500 0.937500
vn 0.7071 0.7071 0.0000
vn -0.7071 -0.7071 -0.0000
vn -0.7071 0.7071 0.0000
vn 0.7071 -0.7071 -0.0000
vn 0.0000 0.0000 1.0000
vn 0.0000 0.0000 -1.0000
usemtl m_1
s 1
f 9/24/7 10/25/7 11/26/7
f 10/25/7 12/27/7 11/26/7
f 13/28/8 14/29/8 15/30/8
f 14/29/8 16/31/8 15/30/8
f 13/28/9 15/32/9 11/33/9
f 15/32/9 9/34/9 11/33/9
f 16/35/10 14/36/10 10/37/10
f 14/36/10 12/38/10 10/37/10
f 15/39/11 16/40/11 9/41/11
f 16/40/11 10/42/11 9/41/11
f 11/43/12 12/44/12 13/45/12
f 12/44/12 14/46/12 13/45/12
o bar
v 0.031250 0.468750 0.031250
v 0.031250 -0.468750 0.031250
v 0.031250 0.468750 -0.031250
v 0.031250 -0.468750 -0.031250
v -0.031250 0.468750 -0.031250
v -0.031250 -0.468750 -0.031250
v -0.031250 0.468750 0.031250
v -0.031250 -0.468750 0.031250
vt 0.000000 1.000000
vt 0.000000 0.062500
vt 0.062500 1.000000
vt 0.062500 0.062500
vt 0.000000 1.000000
vt 0.000000 0.062500
vt 0.062500 1.000000
vt 0.062500 0.062500
vt 0.000000 0.937500
vt 0.062500 0.937500
vt 0.000000 1.000000
vt 0.000000 0.937500
vt 0.062500 1.000000
vt 0.062500 0.937500
vt 0.000000 1.000000
vt 0.000000 0.062500
vt 0.062500 1.000000
vt 0.062500 0.062500
vt 0.000000 1.000000
vt 0.000000 0.062500
vt 0.062500 1.000000
vt 0.062500 0.062500
vn 1.0000 0.0000 0.0000
vn -1.0000 0.0000 0.0000
vn 0.0000 1.0000 0.0000
vn 0.0000 -1.0000 0.0000
vn 0.0000 -0.0000 1.0000
vn 0.0000 0.0000 -1.0000
usemtl m_0
s 1
f 17/47/13 18/48/13 19/49/13
f 18/48/13 20/50/13 19/49/13
f 21/51/14 22/52/14 23/53/14
f 22/52/14 24/54/14 23/53/14
f 21/51/15 23/55/15 19/49/15
f 23/55/15 17/56/15 19/49/15
f 24/57/16 22/58/16 18/59/16
f 22/58/16 20/60/16 18/59/16
f 23/61/17 24/62/17 17/63/17
f 24/62/17 18/64/17 17/63/17
f 19/65/18 20/66/18 21/67/18
f 20/66/18 22/68/18 21/67/18
